<mxfile host="app.diagrams.net" modified="2020-11-20T16:28:28.699Z" agent="5.0 (Windows NT 10.0; Win64; x64) AppleWebKit/537.36 (KHTML, like Gecko) Chrome/86.0.4240.198 Safari/537.36" etag="T0n9Wn_3BpWQlCuxlyPo" version="13.10.0" type="github">
  <diagram id="i0ZCC6gPvpsw9AidNOFE" name="Page-1">
    <mxGraphModel dx="1108" dy="1550" grid="1" gridSize="10" guides="1" tooltips="1" connect="1" arrows="1" fold="1" page="1" pageScale="1" pageWidth="850" pageHeight="1100" math="0" shadow="0">
      <root>
        <mxCell id="0" />
        <mxCell id="1" parent="0" />
        <mxCell id="R1DGMf2DeEo3mq3MmFv_-10" value="Admin" style="swimlane;fontStyle=1;align=center;verticalAlign=top;childLayout=stackLayout;horizontal=1;startSize=26;horizontalStack=0;resizeParent=1;resizeParentMax=0;resizeLast=0;collapsible=1;marginBottom=0;" vertex="1" parent="1">
          <mxGeometry x="30" y="-900" width="260" height="216" as="geometry" />
        </mxCell>
        <mxCell id="R1DGMf2DeEo3mq3MmFv_-59" value="- age: int" style="text;strokeColor=none;fillColor=none;align=left;verticalAlign=top;spacingLeft=4;spacingRight=4;overflow=hidden;rotatable=0;points=[[0,0.5],[1,0.5]];portConstraint=eastwest;" vertex="1" parent="R1DGMf2DeEo3mq3MmFv_-10">
          <mxGeometry y="26" width="260" height="26" as="geometry" />
        </mxCell>
        <mxCell id="R1DGMf2DeEo3mq3MmFv_-11" value="- name: string&#xa;" style="text;strokeColor=none;fillColor=none;align=left;verticalAlign=top;spacingLeft=4;spacingRight=4;overflow=hidden;rotatable=0;points=[[0,0.5],[1,0.5]];portConstraint=eastwest;" vertex="1" parent="R1DGMf2DeEo3mq3MmFv_-10">
          <mxGeometry y="52" width="260" height="26" as="geometry" />
        </mxCell>
        <mxCell id="R1DGMf2DeEo3mq3MmFv_-60" value="- address: Address" style="text;strokeColor=none;fillColor=none;align=left;verticalAlign=top;spacingLeft=4;spacingRight=4;overflow=hidden;rotatable=0;points=[[0,0.5],[1,0.5]];portConstraint=eastwest;" vertex="1" parent="R1DGMf2DeEo3mq3MmFv_-10">
          <mxGeometry y="78" width="260" height="26" as="geometry" />
        </mxCell>
        <mxCell id="R1DGMf2DeEo3mq3MmFv_-61" value="- email: string" style="text;strokeColor=none;fillColor=none;align=left;verticalAlign=top;spacingLeft=4;spacingRight=4;overflow=hidden;rotatable=0;points=[[0,0.5],[1,0.5]];portConstraint=eastwest;" vertex="1" parent="R1DGMf2DeEo3mq3MmFv_-10">
          <mxGeometry y="104" width="260" height="26" as="geometry" />
        </mxCell>
        <mxCell id="R1DGMf2DeEo3mq3MmFv_-63" value="- inventoryManager: inventoryManager[5..20]" style="text;strokeColor=none;fillColor=none;align=left;verticalAlign=top;spacingLeft=4;spacingRight=4;overflow=hidden;rotatable=0;points=[[0,0.5],[1,0.5]];portConstraint=eastwest;" vertex="1" parent="R1DGMf2DeEo3mq3MmFv_-10">
          <mxGeometry y="130" width="260" height="26" as="geometry" />
        </mxCell>
        <mxCell id="R1DGMf2DeEo3mq3MmFv_-12" value="" style="line;strokeWidth=1;fillColor=none;align=left;verticalAlign=middle;spacingTop=-1;spacingLeft=3;spacingRight=3;rotatable=0;labelPosition=right;points=[];portConstraint=eastwest;" vertex="1" parent="R1DGMf2DeEo3mq3MmFv_-10">
          <mxGeometry y="156" width="260" height="8" as="geometry" />
        </mxCell>
        <mxCell id="R1DGMf2DeEo3mq3MmFv_-62" value="+ addInventoryManager(userId: string): void&#xa;" style="text;strokeColor=none;fillColor=none;align=left;verticalAlign=top;spacingLeft=4;spacingRight=4;overflow=hidden;rotatable=0;points=[[0,0.5],[1,0.5]];portConstraint=eastwest;" vertex="1" parent="R1DGMf2DeEo3mq3MmFv_-10">
          <mxGeometry y="164" width="260" height="26" as="geometry" />
        </mxCell>
        <mxCell id="R1DGMf2DeEo3mq3MmFv_-13" value="+ deleteInventoryManager(userId: string): void&#xa;" style="text;strokeColor=none;fillColor=none;align=left;verticalAlign=top;spacingLeft=4;spacingRight=4;overflow=hidden;rotatable=0;points=[[0,0.5],[1,0.5]];portConstraint=eastwest;" vertex="1" parent="R1DGMf2DeEo3mq3MmFv_-10">
          <mxGeometry y="190" width="260" height="26" as="geometry" />
        </mxCell>
        <mxCell id="R1DGMf2DeEo3mq3MmFv_-15" value="Order" style="swimlane;fontStyle=1;align=center;verticalAlign=top;childLayout=stackLayout;horizontal=1;startSize=26;horizontalStack=0;resizeParent=1;resizeParentMax=0;resizeLast=0;collapsible=1;marginBottom=0;" vertex="1" parent="1">
          <mxGeometry x="420" y="-513" width="160" height="138" as="geometry" />
        </mxCell>
        <mxCell id="R1DGMf2DeEo3mq3MmFv_-16" value="- orderId: string" style="text;strokeColor=none;fillColor=none;align=left;verticalAlign=top;spacingLeft=4;spacingRight=4;overflow=hidden;rotatable=0;points=[[0,0.5],[1,0.5]];portConstraint=eastwest;" vertex="1" parent="R1DGMf2DeEo3mq3MmFv_-15">
          <mxGeometry y="26" width="160" height="26" as="geometry" />
        </mxCell>
        <mxCell id="R1DGMf2DeEo3mq3MmFv_-91" value="- orderDate: Date" style="text;strokeColor=none;fillColor=none;align=left;verticalAlign=top;spacingLeft=4;spacingRight=4;overflow=hidden;rotatable=0;points=[[0,0.5],[1,0.5]];portConstraint=eastwest;" vertex="1" parent="R1DGMf2DeEo3mq3MmFv_-15">
          <mxGeometry y="52" width="160" height="26" as="geometry" />
        </mxCell>
        <mxCell id="R1DGMf2DeEo3mq3MmFv_-90" value="- supplierId: strinf" style="text;strokeColor=none;fillColor=none;align=left;verticalAlign=top;spacingLeft=4;spacingRight=4;overflow=hidden;rotatable=0;points=[[0,0.5],[1,0.5]];portConstraint=eastwest;" vertex="1" parent="R1DGMf2DeEo3mq3MmFv_-15">
          <mxGeometry y="78" width="160" height="26" as="geometry" />
        </mxCell>
        <mxCell id="R1DGMf2DeEo3mq3MmFv_-17" value="" style="line;strokeWidth=1;fillColor=none;align=left;verticalAlign=middle;spacingTop=-1;spacingLeft=3;spacingRight=3;rotatable=0;labelPosition=right;points=[];portConstraint=eastwest;" vertex="1" parent="R1DGMf2DeEo3mq3MmFv_-15">
          <mxGeometry y="104" width="160" height="8" as="geometry" />
        </mxCell>
        <mxCell id="R1DGMf2DeEo3mq3MmFv_-18" value="+ getOrderDetails(): Order" style="text;strokeColor=none;fillColor=none;align=left;verticalAlign=top;spacingLeft=4;spacingRight=4;overflow=hidden;rotatable=0;points=[[0,0.5],[1,0.5]];portConstraint=eastwest;" vertex="1" parent="R1DGMf2DeEo3mq3MmFv_-15">
          <mxGeometry y="112" width="160" height="26" as="geometry" />
        </mxCell>
        <mxCell id="R1DGMf2DeEo3mq3MmFv_-23" value="Invoice" style="swimlane;fontStyle=1;align=center;verticalAlign=top;childLayout=stackLayout;horizontal=1;startSize=26;horizontalStack=0;resizeParent=1;resizeParentMax=0;resizeLast=0;collapsible=1;marginBottom=0;" vertex="1" parent="1">
          <mxGeometry x="550" y="-684" width="160" height="112" as="geometry" />
        </mxCell>
        <mxCell id="R1DGMf2DeEo3mq3MmFv_-24" value="- invoiceId: string&#xa;" style="text;strokeColor=none;fillColor=none;align=left;verticalAlign=top;spacingLeft=4;spacingRight=4;overflow=hidden;rotatable=0;points=[[0,0.5],[1,0.5]];portConstraint=eastwest;" vertex="1" parent="R1DGMf2DeEo3mq3MmFv_-23">
          <mxGeometry y="26" width="160" height="26" as="geometry" />
        </mxCell>
        <mxCell id="R1DGMf2DeEo3mq3MmFv_-89" value="- amount: int&#xa;" style="text;strokeColor=none;fillColor=none;align=left;verticalAlign=top;spacingLeft=4;spacingRight=4;overflow=hidden;rotatable=0;points=[[0,0.5],[1,0.5]];portConstraint=eastwest;" vertex="1" parent="R1DGMf2DeEo3mq3MmFv_-23">
          <mxGeometry y="52" width="160" height="26" as="geometry" />
        </mxCell>
        <mxCell id="R1DGMf2DeEo3mq3MmFv_-25" value="" style="line;strokeWidth=1;fillColor=none;align=left;verticalAlign=middle;spacingTop=-1;spacingLeft=3;spacingRight=3;rotatable=0;labelPosition=right;points=[];portConstraint=eastwest;" vertex="1" parent="R1DGMf2DeEo3mq3MmFv_-23">
          <mxGeometry y="78" width="160" height="8" as="geometry" />
        </mxCell>
        <mxCell id="R1DGMf2DeEo3mq3MmFv_-26" value="+ getTotalAmount(): int" style="text;strokeColor=none;fillColor=none;align=left;verticalAlign=top;spacingLeft=4;spacingRight=4;overflow=hidden;rotatable=0;points=[[0,0.5],[1,0.5]];portConstraint=eastwest;" vertex="1" parent="R1DGMf2DeEo3mq3MmFv_-23">
          <mxGeometry y="86" width="160" height="26" as="geometry" />
        </mxCell>
        <mxCell id="R1DGMf2DeEo3mq3MmFv_-28" value="Notification" style="swimlane;fontStyle=1;align=center;verticalAlign=top;childLayout=stackLayout;horizontal=1;startSize=26;horizontalStack=0;resizeParent=1;resizeParentMax=0;resizeLast=0;collapsible=1;marginBottom=0;" vertex="1" parent="1">
          <mxGeometry x="620" y="-513" width="180" height="112" as="geometry" />
        </mxCell>
        <mxCell id="R1DGMf2DeEo3mq3MmFv_-29" value="- notificationId:  string" style="text;strokeColor=none;fillColor=none;align=left;verticalAlign=top;spacingLeft=4;spacingRight=4;overflow=hidden;rotatable=0;points=[[0,0.5],[1,0.5]];portConstraint=eastwest;" vertex="1" parent="R1DGMf2DeEo3mq3MmFv_-28">
          <mxGeometry y="26" width="180" height="26" as="geometry" />
        </mxCell>
        <mxCell id="R1DGMf2DeEo3mq3MmFv_-92" value="- notificationCategory:  string" style="text;strokeColor=none;fillColor=none;align=left;verticalAlign=top;spacingLeft=4;spacingRight=4;overflow=hidden;rotatable=0;points=[[0,0.5],[1,0.5]];portConstraint=eastwest;" vertex="1" parent="R1DGMf2DeEo3mq3MmFv_-28">
          <mxGeometry y="52" width="180" height="26" as="geometry" />
        </mxCell>
        <mxCell id="R1DGMf2DeEo3mq3MmFv_-30" value="" style="line;strokeWidth=1;fillColor=none;align=left;verticalAlign=middle;spacingTop=-1;spacingLeft=3;spacingRight=3;rotatable=0;labelPosition=right;points=[];portConstraint=eastwest;" vertex="1" parent="R1DGMf2DeEo3mq3MmFv_-28">
          <mxGeometry y="78" width="180" height="8" as="geometry" />
        </mxCell>
        <mxCell id="R1DGMf2DeEo3mq3MmFv_-31" value="+ createNotification(): void&#xa;" style="text;strokeColor=none;fillColor=none;align=left;verticalAlign=top;spacingLeft=4;spacingRight=4;overflow=hidden;rotatable=0;points=[[0,0.5],[1,0.5]];portConstraint=eastwest;" vertex="1" parent="R1DGMf2DeEo3mq3MmFv_-28">
          <mxGeometry y="86" width="180" height="26" as="geometry" />
        </mxCell>
        <mxCell id="R1DGMf2DeEo3mq3MmFv_-32" value="Supplier" style="swimlane;fontStyle=1;align=center;verticalAlign=top;childLayout=stackLayout;horizontal=1;startSize=26;horizontalStack=0;resizeParent=1;resizeParentMax=0;resizeLast=0;collapsible=1;marginBottom=0;" vertex="1" parent="1">
          <mxGeometry x="680" y="-900" width="160" height="190" as="geometry" />
        </mxCell>
        <mxCell id="R1DGMf2DeEo3mq3MmFv_-74" value="- name: string&#xa;" style="text;strokeColor=none;fillColor=none;align=left;verticalAlign=top;spacingLeft=4;spacingRight=4;overflow=hidden;rotatable=0;points=[[0,0.5],[1,0.5]];portConstraint=eastwest;" vertex="1" parent="R1DGMf2DeEo3mq3MmFv_-32">
          <mxGeometry y="26" width="160" height="26" as="geometry" />
        </mxCell>
        <mxCell id="R1DGMf2DeEo3mq3MmFv_-73" value="- age: int" style="text;strokeColor=none;fillColor=none;align=left;verticalAlign=top;spacingLeft=4;spacingRight=4;overflow=hidden;rotatable=0;points=[[0,0.5],[1,0.5]];portConstraint=eastwest;" vertex="1" parent="R1DGMf2DeEo3mq3MmFv_-32">
          <mxGeometry y="52" width="160" height="26" as="geometry" />
        </mxCell>
        <mxCell id="R1DGMf2DeEo3mq3MmFv_-75" value="- address: Address" style="text;strokeColor=none;fillColor=none;align=left;verticalAlign=top;spacingLeft=4;spacingRight=4;overflow=hidden;rotatable=0;points=[[0,0.5],[1,0.5]];portConstraint=eastwest;" vertex="1" parent="R1DGMf2DeEo3mq3MmFv_-32">
          <mxGeometry y="78" width="160" height="26" as="geometry" />
        </mxCell>
        <mxCell id="R1DGMf2DeEo3mq3MmFv_-33" value="- email: string" style="text;strokeColor=none;fillColor=none;align=left;verticalAlign=top;spacingLeft=4;spacingRight=4;overflow=hidden;rotatable=0;points=[[0,0.5],[1,0.5]];portConstraint=eastwest;" vertex="1" parent="R1DGMf2DeEo3mq3MmFv_-32">
          <mxGeometry y="104" width="160" height="26" as="geometry" />
        </mxCell>
        <mxCell id="R1DGMf2DeEo3mq3MmFv_-34" value="" style="line;strokeWidth=1;fillColor=none;align=left;verticalAlign=middle;spacingTop=-1;spacingLeft=3;spacingRight=3;rotatable=0;labelPosition=right;points=[];portConstraint=eastwest;" vertex="1" parent="R1DGMf2DeEo3mq3MmFv_-32">
          <mxGeometry y="130" width="160" height="8" as="geometry" />
        </mxCell>
        <mxCell id="R1DGMf2DeEo3mq3MmFv_-76" value="+ raiseInvoice(): void" style="text;strokeColor=none;fillColor=none;align=left;verticalAlign=top;spacingLeft=4;spacingRight=4;overflow=hidden;rotatable=0;points=[[0,0.5],[1,0.5]];portConstraint=eastwest;" vertex="1" parent="R1DGMf2DeEo3mq3MmFv_-32">
          <mxGeometry y="138" width="160" height="26" as="geometry" />
        </mxCell>
        <mxCell id="R1DGMf2DeEo3mq3MmFv_-35" value="- sendStock(): void" style="text;strokeColor=none;fillColor=none;align=left;verticalAlign=top;spacingLeft=4;spacingRight=4;overflow=hidden;rotatable=0;points=[[0,0.5],[1,0.5]];portConstraint=eastwest;" vertex="1" parent="R1DGMf2DeEo3mq3MmFv_-32">
          <mxGeometry y="164" width="160" height="26" as="geometry" />
        </mxCell>
        <mxCell id="R1DGMf2DeEo3mq3MmFv_-36" value="Inventory/Manager" style="swimlane;fontStyle=1;align=center;verticalAlign=top;childLayout=stackLayout;horizontal=1;startSize=26;horizontalStack=0;resizeParent=1;resizeParentMax=0;resizeLast=0;collapsible=1;marginBottom=0;" vertex="1" parent="1">
          <mxGeometry x="420" y="-900" width="160" height="190" as="geometry" />
        </mxCell>
        <mxCell id="R1DGMf2DeEo3mq3MmFv_-69" value="- name: string&#xa;" style="text;strokeColor=none;fillColor=none;align=left;verticalAlign=top;spacingLeft=4;spacingRight=4;overflow=hidden;rotatable=0;points=[[0,0.5],[1,0.5]];portConstraint=eastwest;" vertex="1" parent="R1DGMf2DeEo3mq3MmFv_-36">
          <mxGeometry y="26" width="160" height="26" as="geometry" />
        </mxCell>
        <mxCell id="R1DGMf2DeEo3mq3MmFv_-68" value="- age: int" style="text;strokeColor=none;fillColor=none;align=left;verticalAlign=top;spacingLeft=4;spacingRight=4;overflow=hidden;rotatable=0;points=[[0,0.5],[1,0.5]];portConstraint=eastwest;" vertex="1" parent="R1DGMf2DeEo3mq3MmFv_-36">
          <mxGeometry y="52" width="160" height="26" as="geometry" />
        </mxCell>
        <mxCell id="R1DGMf2DeEo3mq3MmFv_-70" value="- address: Address" style="text;strokeColor=none;fillColor=none;align=left;verticalAlign=top;spacingLeft=4;spacingRight=4;overflow=hidden;rotatable=0;points=[[0,0.5],[1,0.5]];portConstraint=eastwest;" vertex="1" parent="R1DGMf2DeEo3mq3MmFv_-36">
          <mxGeometry y="78" width="160" height="26" as="geometry" />
        </mxCell>
        <mxCell id="R1DGMf2DeEo3mq3MmFv_-71" value="- email: string" style="text;strokeColor=none;fillColor=none;align=left;verticalAlign=top;spacingLeft=4;spacingRight=4;overflow=hidden;rotatable=0;points=[[0,0.5],[1,0.5]];portConstraint=eastwest;" vertex="1" parent="R1DGMf2DeEo3mq3MmFv_-36">
          <mxGeometry y="104" width="160" height="26" as="geometry" />
        </mxCell>
        <mxCell id="R1DGMf2DeEo3mq3MmFv_-38" value="" style="line;strokeWidth=1;fillColor=none;align=left;verticalAlign=middle;spacingTop=-1;spacingLeft=3;spacingRight=3;rotatable=0;labelPosition=right;points=[];portConstraint=eastwest;" vertex="1" parent="R1DGMf2DeEo3mq3MmFv_-36">
          <mxGeometry y="130" width="160" height="8" as="geometry" />
        </mxCell>
        <mxCell id="R1DGMf2DeEo3mq3MmFv_-72" value="+ createOrder(): void" style="text;strokeColor=none;fillColor=none;align=left;verticalAlign=top;spacingLeft=4;spacingRight=4;overflow=hidden;rotatable=0;points=[[0,0.5],[1,0.5]];portConstraint=eastwest;" vertex="1" parent="R1DGMf2DeEo3mq3MmFv_-36">
          <mxGeometry y="138" width="160" height="26" as="geometry" />
        </mxCell>
        <mxCell id="R1DGMf2DeEo3mq3MmFv_-39" value="+ UpdateOrder(): void" style="text;strokeColor=none;fillColor=none;align=left;verticalAlign=top;spacingLeft=4;spacingRight=4;overflow=hidden;rotatable=0;points=[[0,0.5],[1,0.5]];portConstraint=eastwest;" vertex="1" parent="R1DGMf2DeEo3mq3MmFv_-36">
          <mxGeometry y="164" width="160" height="26" as="geometry" />
        </mxCell>
        <mxCell id="R1DGMf2DeEo3mq3MmFv_-48" value="User" style="swimlane;fontStyle=1;align=center;verticalAlign=top;childLayout=stackLayout;horizontal=1;startSize=26;horizontalStack=0;resizeParent=1;resizeParentMax=0;resizeLast=0;collapsible=1;marginBottom=0;" vertex="1" parent="1">
          <mxGeometry x="420" y="-1080" width="160" height="112" as="geometry" />
        </mxCell>
        <mxCell id="R1DGMf2DeEo3mq3MmFv_-58" value="- userid: string" style="text;strokeColor=none;fillColor=none;align=left;verticalAlign=top;spacingLeft=4;spacingRight=4;overflow=hidden;rotatable=0;points=[[0,0.5],[1,0.5]];portConstraint=eastwest;" vertex="1" parent="R1DGMf2DeEo3mq3MmFv_-48">
          <mxGeometry y="26" width="160" height="26" as="geometry" />
        </mxCell>
        <mxCell id="R1DGMf2DeEo3mq3MmFv_-57" value="- password: string" style="text;strokeColor=none;fillColor=none;align=left;verticalAlign=top;spacingLeft=4;spacingRight=4;overflow=hidden;rotatable=0;points=[[0,0.5],[1,0.5]];portConstraint=eastwest;" vertex="1" parent="R1DGMf2DeEo3mq3MmFv_-48">
          <mxGeometry y="52" width="160" height="26" as="geometry" />
        </mxCell>
        <mxCell id="R1DGMf2DeEo3mq3MmFv_-50" value="" style="line;strokeWidth=1;fillColor=none;align=left;verticalAlign=middle;spacingTop=-1;spacingLeft=3;spacingRight=3;rotatable=0;labelPosition=right;points=[];portConstraint=eastwest;" vertex="1" parent="R1DGMf2DeEo3mq3MmFv_-48">
          <mxGeometry y="78" width="160" height="8" as="geometry" />
        </mxCell>
        <mxCell id="R1DGMf2DeEo3mq3MmFv_-51" value="+ login(): boolean" style="text;strokeColor=none;fillColor=none;align=left;verticalAlign=top;spacingLeft=4;spacingRight=4;overflow=hidden;rotatable=0;points=[[0,0.5],[1,0.5]];portConstraint=eastwest;" vertex="1" parent="R1DGMf2DeEo3mq3MmFv_-48">
          <mxGeometry y="86" width="160" height="26" as="geometry" />
        </mxCell>
        <mxCell id="R1DGMf2DeEo3mq3MmFv_-129" value="Address" style="swimlane;fontStyle=1;align=center;verticalAlign=top;childLayout=stackLayout;horizontal=1;startSize=26;horizontalStack=0;resizeParent=1;resizeParentMax=0;resizeLast=0;collapsible=1;marginBottom=0;" vertex="1" parent="1">
          <mxGeometry x="70" y="-608" width="160" height="138" as="geometry" />
        </mxCell>
        <mxCell id="R1DGMf2DeEo3mq3MmFv_-133" value="- street: string" style="text;strokeColor=none;fillColor=none;align=left;verticalAlign=top;spacingLeft=4;spacingRight=4;overflow=hidden;rotatable=0;points=[[0,0.5],[1,0.5]];portConstraint=eastwest;" vertex="1" parent="R1DGMf2DeEo3mq3MmFv_-129">
          <mxGeometry y="26" width="160" height="26" as="geometry" />
        </mxCell>
        <mxCell id="R1DGMf2DeEo3mq3MmFv_-130" value="- postcode: string" style="text;strokeColor=none;fillColor=none;align=left;verticalAlign=top;spacingLeft=4;spacingRight=4;overflow=hidden;rotatable=0;points=[[0,0.5],[1,0.5]];portConstraint=eastwest;" vertex="1" parent="R1DGMf2DeEo3mq3MmFv_-129">
          <mxGeometry y="52" width="160" height="26" as="geometry" />
        </mxCell>
        <mxCell id="R1DGMf2DeEo3mq3MmFv_-134" value="- city: string" style="text;strokeColor=none;fillColor=none;align=left;verticalAlign=top;spacingLeft=4;spacingRight=4;overflow=hidden;rotatable=0;points=[[0,0.5],[1,0.5]];portConstraint=eastwest;" vertex="1" parent="R1DGMf2DeEo3mq3MmFv_-129">
          <mxGeometry y="78" width="160" height="26" as="geometry" />
        </mxCell>
        <mxCell id="R1DGMf2DeEo3mq3MmFv_-131" value="" style="line;strokeWidth=1;fillColor=none;align=left;verticalAlign=middle;spacingTop=-1;spacingLeft=3;spacingRight=3;rotatable=0;labelPosition=right;points=[];portConstraint=eastwest;" vertex="1" parent="R1DGMf2DeEo3mq3MmFv_-129">
          <mxGeometry y="104" width="160" height="8" as="geometry" />
        </mxCell>
        <mxCell id="R1DGMf2DeEo3mq3MmFv_-132" value="+ getAddress(): string" style="text;strokeColor=none;fillColor=none;align=left;verticalAlign=top;spacingLeft=4;spacingRight=4;overflow=hidden;rotatable=0;points=[[0,0.5],[1,0.5]];portConstraint=eastwest;" vertex="1" parent="R1DGMf2DeEo3mq3MmFv_-129">
          <mxGeometry y="112" width="160" height="26" as="geometry" />
        </mxCell>
        <mxCell id="R1DGMf2DeEo3mq3MmFv_-137" value="" style="endArrow=diamondThin;endFill=1;endSize=24;html=1;exitX=0.462;exitY=1.154;exitDx=0;exitDy=0;exitPerimeter=0;" edge="1" parent="1" source="R1DGMf2DeEo3mq3MmFv_-13">
          <mxGeometry width="160" relative="1" as="geometry">
            <mxPoint x="110" y="-662" as="sourcePoint" />
            <mxPoint x="150" y="-610" as="targetPoint" />
          </mxGeometry>
        </mxCell>
        <mxCell id="R1DGMf2DeEo3mq3MmFv_-138" value="" style="endArrow=diamondThin;endFill=1;endSize=24;html=1;entryX=1;entryY=0.5;entryDx=0;entryDy=0;" edge="1" parent="1" source="R1DGMf2DeEo3mq3MmFv_-39" target="R1DGMf2DeEo3mq3MmFv_-130">
          <mxGeometry width="160" relative="1" as="geometry">
            <mxPoint x="160.1199999999999" y="-669.996" as="sourcePoint" />
            <mxPoint x="160" y="-600" as="targetPoint" />
            <Array as="points">
              <mxPoint x="320" y="-723" />
              <mxPoint x="320" y="-543" />
            </Array>
          </mxGeometry>
        </mxCell>
        <mxCell id="R1DGMf2DeEo3mq3MmFv_-139" value="" style="endArrow=diamondThin;endFill=1;endSize=24;html=1;exitX=0.463;exitY=1.077;exitDx=0;exitDy=0;exitPerimeter=0;entryX=1;entryY=0.5;entryDx=0;entryDy=0;" edge="1" parent="1" source="R1DGMf2DeEo3mq3MmFv_-35" target="R1DGMf2DeEo3mq3MmFv_-130">
          <mxGeometry width="160" relative="1" as="geometry">
            <mxPoint x="400" y="-600" as="sourcePoint" />
            <mxPoint x="560" y="-600" as="targetPoint" />
            <Array as="points">
              <mxPoint x="754" y="-543" />
              <mxPoint x="410" y="-543" />
            </Array>
          </mxGeometry>
        </mxCell>
        <mxCell id="R1DGMf2DeEo3mq3MmFv_-144" value="Adds" style="endArrow=block;endFill=1;html=1;edgeStyle=orthogonalEdgeStyle;align=left;verticalAlign=top;" edge="1" parent="1">
          <mxGeometry x="-1" relative="1" as="geometry">
            <mxPoint x="290" y="-800.5" as="sourcePoint" />
            <mxPoint x="420" y="-800" as="targetPoint" />
            <Array as="points">
              <mxPoint x="380" y="-800" />
              <mxPoint x="380" y="-800" />
            </Array>
          </mxGeometry>
        </mxCell>
        <mxCell id="R1DGMf2DeEo3mq3MmFv_-145" value="1" style="edgeLabel;resizable=0;html=1;align=left;verticalAlign=bottom;" connectable="0" vertex="1" parent="R1DGMf2DeEo3mq3MmFv_-144">
          <mxGeometry x="-1" relative="1" as="geometry" />
        </mxCell>
        <mxCell id="R1DGMf2DeEo3mq3MmFv_-147" value="*" style="text;html=1;strokeColor=none;fillColor=none;align=center;verticalAlign=middle;whiteSpace=wrap;rounded=0;" vertex="1" parent="1">
          <mxGeometry x="350" y="-820" width="100" height="20" as="geometry" />
        </mxCell>
        <mxCell id="R1DGMf2DeEo3mq3MmFv_-152" value="order" style="endArrow=open;html=1;endSize=12;startArrow=diamondThin;startSize=14;startFill=0;edgeStyle=orthogonalEdgeStyle;exitX=0.5;exitY=0;exitDx=0;exitDy=0;" edge="1" parent="1" source="R1DGMf2DeEo3mq3MmFv_-15" target="R1DGMf2DeEo3mq3MmFv_-39">
          <mxGeometry relative="1" as="geometry">
            <mxPoint x="400" y="-600" as="sourcePoint" />
            <mxPoint x="500" y="-700" as="targetPoint" />
            <Array as="points">
              <mxPoint x="500" y="-560" />
              <mxPoint x="500" y="-560" />
            </Array>
          </mxGeometry>
        </mxCell>
        <mxCell id="R1DGMf2DeEo3mq3MmFv_-153" value="0..n" style="edgeLabel;resizable=0;html=1;align=left;verticalAlign=top;" connectable="0" vertex="1" parent="R1DGMf2DeEo3mq3MmFv_-152">
          <mxGeometry x="-1" relative="1" as="geometry">
            <mxPoint x="-30" y="-30" as="offset" />
          </mxGeometry>
        </mxCell>
        <mxCell id="R1DGMf2DeEo3mq3MmFv_-154" value="1" style="edgeLabel;resizable=0;html=1;align=right;verticalAlign=top;" connectable="0" vertex="1" parent="R1DGMf2DeEo3mq3MmFv_-152">
          <mxGeometry x="1" relative="1" as="geometry">
            <mxPoint x="-20" as="offset" />
          </mxGeometry>
        </mxCell>
        <mxCell id="R1DGMf2DeEo3mq3MmFv_-155" value="Product" style="swimlane;fontStyle=0;childLayout=stackLayout;horizontal=1;startSize=26;fillColor=none;horizontalStack=0;resizeParent=1;resizeParentMax=0;resizeLast=0;collapsible=1;marginBottom=0;" vertex="1" parent="1">
          <mxGeometry x="340" y="-676" width="140" height="104" as="geometry" />
        </mxCell>
        <mxCell id="R1DGMf2DeEo3mq3MmFv_-161" value="- price: int" style="text;strokeColor=none;fillColor=none;align=left;verticalAlign=top;spacingLeft=4;spacingRight=4;overflow=hidden;rotatable=0;points=[[0,0.5],[1,0.5]];portConstraint=eastwest;" vertex="1" parent="R1DGMf2DeEo3mq3MmFv_-155">
          <mxGeometry y="26" width="140" height="26" as="geometry" />
        </mxCell>
        <mxCell id="R1DGMf2DeEo3mq3MmFv_-160" value="- category: string" style="text;strokeColor=none;fillColor=none;align=left;verticalAlign=top;spacingLeft=4;spacingRight=4;overflow=hidden;rotatable=0;points=[[0,0.5],[1,0.5]];portConstraint=eastwest;" vertex="1" parent="R1DGMf2DeEo3mq3MmFv_-155">
          <mxGeometry y="52" width="140" height="26" as="geometry" />
        </mxCell>
        <mxCell id="R1DGMf2DeEo3mq3MmFv_-159" value="- productId: string" style="text;strokeColor=none;fillColor=none;align=left;verticalAlign=top;spacingLeft=4;spacingRight=4;overflow=hidden;rotatable=0;points=[[0,0.5],[1,0.5]];portConstraint=eastwest;" vertex="1" parent="R1DGMf2DeEo3mq3MmFv_-155">
          <mxGeometry y="78" width="140" height="26" as="geometry" />
        </mxCell>
        <mxCell id="R1DGMf2DeEo3mq3MmFv_-163" value="" style="endArrow=none;dashed=1;html=1;dashPattern=1 3;strokeWidth=2;exitX=1;exitY=0.5;exitDx=0;exitDy=0;" edge="1" parent="1" source="R1DGMf2DeEo3mq3MmFv_-160">
          <mxGeometry width="50" height="50" relative="1" as="geometry">
            <mxPoint x="450" y="-570" as="sourcePoint" />
            <mxPoint x="500" y="-570" as="targetPoint" />
          </mxGeometry>
        </mxCell>
        <mxCell id="R1DGMf2DeEo3mq3MmFv_-164" value="" style="endArrow=open;endFill=1;endSize=12;html=1;exitX=0;exitY=0.5;exitDx=0;exitDy=0;entryX=0.5;entryY=0;entryDx=0;entryDy=0;" edge="1" parent="1" source="R1DGMf2DeEo3mq3MmFv_-75" target="R1DGMf2DeEo3mq3MmFv_-23">
          <mxGeometry width="160" relative="1" as="geometry">
            <mxPoint x="400" y="-700" as="sourcePoint" />
            <mxPoint x="560" y="-700" as="targetPoint" />
            <Array as="points">
              <mxPoint x="630" y="-809" />
            </Array>
          </mxGeometry>
        </mxCell>
        <mxCell id="R1DGMf2DeEo3mq3MmFv_-165" value="*" style="text;html=1;strokeColor=none;fillColor=none;align=center;verticalAlign=middle;whiteSpace=wrap;rounded=0;" vertex="1" parent="1">
          <mxGeometry x="640" y="-830" width="40" height="20" as="geometry" />
        </mxCell>
        <mxCell id="R1DGMf2DeEo3mq3MmFv_-167" value="*" style="text;html=1;strokeColor=none;fillColor=none;align=center;verticalAlign=middle;whiteSpace=wrap;rounded=0;" vertex="1" parent="1">
          <mxGeometry x="640" y="-710" width="40" height="20" as="geometry" />
        </mxCell>
        <mxCell id="R1DGMf2DeEo3mq3MmFv_-168" value="Extends" style="endArrow=block;endSize=16;endFill=0;html=1;" edge="1" parent="1">
          <mxGeometry width="160" relative="1" as="geometry">
            <mxPoint x="160" y="-900" as="sourcePoint" />
            <mxPoint x="420" y="-1024.5" as="targetPoint" />
            <Array as="points">
              <mxPoint x="160" y="-900" />
              <mxPoint x="160" y="-1024" />
            </Array>
          </mxGeometry>
        </mxCell>
        <mxCell id="R1DGMf2DeEo3mq3MmFv_-170" value="Extends" style="endArrow=block;endSize=16;endFill=0;html=1;exitX=0.381;exitY=0.005;exitDx=0;exitDy=0;exitPerimeter=0;" edge="1" parent="1" source="R1DGMf2DeEo3mq3MmFv_-36">
          <mxGeometry width="160" relative="1" as="geometry">
            <mxPoint x="400" y="-1090" as="sourcePoint" />
            <mxPoint x="480" y="-970" as="targetPoint" />
          </mxGeometry>
        </mxCell>
        <mxCell id="R1DGMf2DeEo3mq3MmFv_-171" value="Extends" style="endArrow=block;endSize=16;endFill=0;html=1;exitX=0.5;exitY=0;exitDx=0;exitDy=0;" edge="1" parent="1" source="R1DGMf2DeEo3mq3MmFv_-32">
          <mxGeometry width="160" relative="1" as="geometry">
            <mxPoint x="760" y="-1026" as="sourcePoint" />
            <mxPoint x="580" y="-1029" as="targetPoint" />
            <Array as="points">
              <mxPoint x="760" y="-1026" />
            </Array>
          </mxGeometry>
        </mxCell>
      </root>
    </mxGraphModel>
  </diagram>
</mxfile>
